<svg xmlns="http://www.w3.org/2000/svg" viewBox="0 0 50.1 50.1" width="30" height="30"><defs><style>.cls-1{fill:#fff;}</style></defs><g id="Calque_2" data-name="Calque 2"><g id="_16" data-name="16"><path class="cls-1" d="M35.84,50.1H14.26A14.28,14.28,0,0,1,0,35.84V14.26A14.28,14.28,0,0,1,14.26,0H35.84A14.28,14.28,0,0,1,50.1,14.26V35.84A14.28,14.28,0,0,1,35.84,50.1ZM14.26,4.29a10,10,0,0,0-10,10V35.84a10,10,0,0,0,10,10H35.84a10,10,0,0,0,10-10V14.26a10,10,0,0,0-10-10Z"/><path class="cls-1" d="M25.05,37.88A12.83,12.83,0,1,1,37.88,25.05,12.85,12.85,0,0,1,25.05,37.88Zm0-21.36a8.53,8.53,0,1,0,8.53,8.53A8.53,8.53,0,0,0,25.05,16.52Z"/><path class="cls-1" d="M41.51,11.49A3.09,3.09,0,1,1,38.43,8.4,3.08,3.08,0,0,1,41.51,11.49Z"/></g></g></svg>