<svg xmlns="http://www.w3.org/2000/svg" viewBox="0 0 463.5 443.04" width="28" height="27"><defs><style>.cls-1{fill:#fff;}</style></defs><g id="Calque_2" data-name="Calque 2"><g id="Calque_1-2" data-name="Calque 1"><path class="cls-1" d="M105.22,443V144.1H5.86V443h99.36ZM55.56,103.29c34.64,0,56.21-23,56.21-51.64C111.11,22.31,90.2,0,56.22,0S0,22.31,0,51.65c0,28.69,21.56,51.64,54.91,51.64h.65ZM160.21,443h99.35V276.11c0-8.92.65-17.87,3.28-24.24,7.18-17.86,23.52-36.34,51-36.34,35.94,0,50.33,27.41,50.33,67.6V443H463.5V271.63c0-91.81-49-134.54-114.38-134.54-53.6,0-77.13,30-90.21,50.36h.66V144.11H160.22c1.29,28,0,298.93,0,298.93Z"/></g></g></svg>