<svg xmlns="http://www.w3.org/2000/svg" viewBox="0 0 413.13 68.25"><defs><style>.cls-1{fill:#fff;}</style></defs><g id="Calque_2" data-name="Calque 2"><g id="Calque_1-2" data-name="Calque 1"><path class="cls-1" d="M50,53.25H42V15.91L26,42.25H25L9,15.84V53.25H0v-52H9.25L25,27.25l15.82-26H50Z"/><path class="cls-1" d="M98,16.25v37H90V47.92c-2.82,3.93-7.19,6.29-13,6.29C67,54.21,58.59,45.7,58.59,34.75S67,15.29,77,15.29c5.77,0,10.14,2.37,13,6.22V16.25ZM89.86,34.72a11.85,11.85,0,1,0-23.7,0,11.85,11.85,0,1,0,23.7,0Z"/><path class="cls-1" d="M127,15.58v8.77c-5.53-.37-12,2.1-12,10.5v18.4h-8v-37h8v6.3C117.34,17.45,122.09,15.58,127,15.58Z"/><path class="cls-1" d="M168,16.25v52h-8V48.12c-2.82,3.86-7.19,6.24-13,6.24-10.08,0-18.45-8.47-18.45-19.54S137,15.29,147,15.29c5.77,0,10.14,2.37,13,6.31V16.25Zm-7.72,18.47a11.85,11.85,0,1,0-23.7,0,11.85,11.85,0,1,0,23.7,0Z"/><path class="cls-1" d="M211,16.25v37h-8V48.52c-2.47,3.84-6.52,5.69-11.61,5.69C183,54.21,177,48.59,177,39V16.25h8v22.2c0,5.7,3.31,8.7,8.44,8.7,5.34,0,9.56-3.15,9.56-10.8V16.25Z"/><path class="cls-1" d="M238.28,47.1A11.45,11.45,0,0,0,248,42.45l6.67,3.9c-3.45,5.1-9.07,8.18-16.42,8.18-12.38,0-20.4-8.48-20.4-19.73,0-11.1,8-19.72,19.8-19.72,11.17,0,18.82,9,18.82,19.8a24.54,24.54,0,0,1-.3,3.37H226.28C227.56,44.1,232.28,47.1,238.28,47.1Zm10-15.85C247.13,24.8,242.41,22,237.53,22c-6.07,0-10.2,3.6-11.32,9.22Z"/><path class="cls-1" d="M307.81,27.22C307.81,12,319.28,0,335.26,0a25.86,25.86,0,0,1,22.57,12.52l-7.5,4.35c-2.77-5.17-8.47-8.47-15.07-8.47-11.33,0-18.83,8-18.83,18.82s7.5,18.83,18.83,18.83c6.6,0,12.37-3.3,15.07-8.48l7.5,4.28a25.74,25.74,0,0,1-22.57,12.6C319.28,54.45,307.81,42.45,307.81,27.22Z"/><path class="cls-1" d="M361.88,34.72a19.8,19.8,0,1,1,19.8,19.73A19.57,19.57,0,0,1,361.88,34.72Zm31.5,0a11.7,11.7,0,1,0-23.4,0,11.7,11.7,0,1,0,23.4,0Z"/><path class="cls-1" d="M301.86,25.37l-9.6,10.34-.09-.1-8.8-9.17,2.4-1.78c4.93-3.75,7.32-7.58,7.32-11.7C293.09,5.39,287.26.1,278.91.1,269.89.1,265,6.91,265,13.32c0,4.76,3.39,8.8,5.94,11.42l1,1.07-.63.45c-7.54,5.61-9,9.51-9,14.36,0,6.75,5.3,13.59,15.44,13.59,5.18,0,9.69-2.26,14.22-7.11L292,47,298,53.25h11.09L297.4,41.06,302.9,35a28.77,28.77,0,0,1-1.09-7.9C301.81,26.51,301.83,25.94,301.86,25.37ZM279,7.21a5.72,5.72,0,0,1,6,5.73c0,2.32-1.11,4.19-3.59,6.07l-3.12,2.28-1.55-1.7c-1.69-1.83-3.5-4-3.5-6.65A5.59,5.59,0,0,1,279,7.21Zm7.69,34.66c-2.39,2.58-5.11,5-8.79,5a6.81,6.81,0,0,1-7.06-6.69c0-3,1.29-5.25,4.33-7.48L277,31.29l.07.08,9.75,10.34Z"/><path class="cls-1" d="M409.93,48.53a1.26,1.26,0,0,0-.32-.88,1.42,1.42,0,0,0-1.08-.4H407v4h1v-2h.68l.81,1.92,0,.08h.58l-.87-1.61A1.15,1.15,0,0,0,409.93,48.53Zm-.5-.28c0,.2-.09.56-.69,0H408v-1h.74C409.21,47.68,409.43,47.86,409.43,48.25Z"/><path class="cls-1" d="M413.13,49.11a4.5,4.5,0,1,0-4.5,4.5A4.51,4.51,0,0,0,413.13,49.11Zm-4.5,3.54a3.54,3.54,0,1,1,3.54-3.54A3.55,3.55,0,0,1,408.63,52.65Z"/></g></g></svg>