<svg xmlns="http://www.w3.org/2000/svg" viewBox="0 0 84.75 75.53"><defs><style>.cls-1{fill:#703bc9;}</style></defs><g id="Calque_2" data-name="Calque 2"><g id="Calque_1-2" data-name="Calque 1"><g id="Calque_2-2" data-name="Calque 2"><g id="Calque_1-2-2" data-name="Calque 1-2"><path class="cls-1" d="M54,43.34a88.72,88.72,0,0,0-5.5-10.49A63,63,0,0,1,74.64,12V75.53H84.75V5.1a5.06,5.06,0,0,0-5-5.1,5.33,5.33,0,0,0-1,.1h0c-1.05.22-20.31,4.41-36.3,24.09C26.39,4.55,7.12.36,6.07.14h0a5.06,5.06,0,0,0-6,4,4.87,4.87,0,0,0-.1,1V75.53H10.11V12A63.14,63.14,0,0,1,36.27,32.85a88.15,88.15,0,0,0-5.55,10.59h0a33,33,0,0,0-2.87,12,14.53,14.53,0,1,0,29.05.76c0-.25,0-.5,0-.76a32.85,32.85,0,0,0-2.68-11.51ZM42.38,60.14A4.6,4.6,0,0,1,38,55.39c0-3.74,2.61-10.09,4.42-11.88,1.8,1.79,4.41,8.14,4.41,11.88a4.6,4.6,0,0,1-4.45,4.75Z"/></g></g></g></g></svg>